<svg width="640" height="640" viewBox="0 0 640 640" fill="none" xmlns="http://www.w3.org/2000/svg">
<rect width="640" height="640" fill="#3772FF"/>
<path d="M180 500C169 500 159.583 496.083 151.75 488.25C143.917 480.417 140 471 140 460V180C140 169 143.917 159.583 151.75 151.75C159.583 143.917 169 140 180 140H460C471 140 480.417 143.917 488.25 151.75C496.083 159.583 500 169 500 180V460C500 471 496.083 480.417 488.25 488.25C480.417 496.083 471 500 460 500H180ZM220 420H420C424 420 427 418.167 429 414.5C431 410.833 430.667 407.333 428 404L373 330.5C371 327.833 368.333 326.5 365 326.5C361.667 326.5 359 327.833 357 330.5L305 400L268 350.5C266 347.833 263.333 346.5 260 346.5C256.667 346.5 254 347.833 252 350.5L212 404C209.333 407.333 209 410.833 211 414.5C213 418.167 216 420 220 420Z" fill="white"/>
</svg>
