<svg width="640" height="640" viewBox="0 0 640 640" fill="none" xmlns="http://www.w3.org/2000/svg">
<rect width="640" height="640" fill="#3772FF"/>
<path d="M430 480C416 480 404.167 475.167 394.5 465.5C384.833 455.833 380 444 380 430C380 416 384.833 404.167 394.5 394.5C404.167 384.833 416 380 430 380C432.667 380 435.667 380.25 439 380.75C442.333 381.25 446 382.333 450 384V300C450 294.333 451.917 289.583 455.75 285.75C459.583 281.917 464.333 280 470 280H500C505.667 280 510.417 281.917 514.25 285.75C518.083 289.583 520 294.333 520 300C520 305.667 518.083 310.417 514.25 314.25C510.417 318.083 505.667 320 500 320H480V430C480 444 475.167 455.833 465.5 465.5C455.833 475.167 444 480 430 480ZM300 320C278 320 259.167 312.167 243.5 296.5C227.833 280.833 220 262 220 240C220 218 227.833 199.167 243.5 183.5C259.167 167.833 278 160 300 160C322 160 340.833 167.833 356.5 183.5C372.167 199.167 380 218 380 240C380 262 372.167 280.833 356.5 296.5C340.833 312.167 322 320 300 320ZM160 480C154.333 480 149.583 478.083 145.75 474.25C141.917 470.417 140 465.667 140 460V424C140 412.333 142.917 401.833 148.75 392.5C154.583 383.167 162.333 376 172 371C192.667 360.667 213.667 352.917 235 347.75C256.333 342.583 278 340 300 340C309.333 340 318.583 340.5 327.75 341.5C336.917 342.5 346.167 344 355.5 346C361.167 347.333 364.75 350.833 366.25 356.5C367.75 362.167 366.167 367.333 361.5 372C354.5 380.333 349.25 389.417 345.75 399.25C342.25 409.083 340.5 419.333 340.5 430C340.5 434.333 340.75 438.583 341.25 442.75C341.75 446.917 342.667 451.167 344 455.5C345.667 461.5 344.917 467.083 341.75 472.25C338.583 477.417 334.167 480 328.5 480H160Z" fill="white"/>
</svg>
