<svg width="120" height="24" viewBox="0 0 120 24" fill="#3772FF" xmlns="http://www.w3.org/2000/svg"><path d="M45.914 9.5a1 1 0 1 1-2 0 1 1 0 0 1 2 0M3.398 15H1.797a.844.844 0 1 1 0-1.687h1.601q.993 0 1.664-.438.672-.445 1.016-1.273.345-.836.344-2v-.586a5.8 5.8 0 0 0-.195-1.586 3.2 3.2 0 0 0-.579-1.157q-.375-.468-.93-.71a3.2 3.2 0 0 0-1.273-.243H1.746a.848.848 0 0 1 0-1.695h1.7q1.14 0 2.077.383.946.382 1.633 1.101A4.8 4.8 0 0 1 8.22 6.813q.375.991.375 2.218v.57q0 1.22-.375 2.22a4.8 4.8 0 0 1-1.063 1.702 4.7 4.7 0 0 1-1.64 1.094Q4.562 15 3.398 15M2.148 3.625V15H1a1 1 0 0 1-1-1V4.625a1 1 0 0 1 1-1zm10.842 0a1 1 0 0 1 1 1V14a1 1 0 0 1-1 1h-.148a1 1 0 0 1-1-1V4.625a1 1 0 0 1 1-1zm10.554 8.422a1.6 1.6 0 0 0-.101-.586 1.1 1.1 0 0 0-.352-.477 2.8 2.8 0 0 0-.71-.421 10 10 0 0 0-1.173-.438 13 13 0 0 1-1.484-.562 5.8 5.8 0 0 1-1.21-.727 3.1 3.1 0 0 1-.806-.953q-.288-.548-.289-1.266 0-.704.297-1.281.305-.578.86-.992.555-.423 1.304-.649a5.8 5.8 0 0 1 1.672-.226q1.266 0 2.188.46.93.462 1.437 1.25.24.373.366.788c.161.528-.306.986-.858.986h-.165c-.539 0-.94-.467-1.202-.937a1.54 1.54 0 0 0-.672-.641q-.445-.234-1.125-.234-.657 0-1.094.195-.429.195-.648.531-.21.336-.211.75 0 .313.148.563.15.242.446.46.297.211.734.4.445.179 1.031.358.938.282 1.64.625.712.345 1.18.782.477.437.711.984.243.548.243 1.242 0 .735-.29 1.313a2.8 2.8 0 0 1-.828.984 3.8 3.8 0 0 1-1.296.617q-.75.21-1.68.211a6.3 6.3 0 0 1-1.64-.219 5 5 0 0 1-1.462-.671 3.4 3.4 0 0 1-1.047-1.141 3 3 0 0 1-.262-.636c-.15-.532.32-.989.872-.989h.211c.522 0 .903.446 1.117.922q.18.375.5.617.328.234.766.344.437.11.945.11.656 0 1.078-.18.43-.188.64-.516a1.3 1.3 0 0 0 .22-.75m11.557.095c.178-.483.584-.884 1.098-.884h.163c.582 0 1.054.502.883 1.058a4 4 0 0 1-.437.965 3.8 3.8 0 0 1-1.524 1.375q-.976.5-2.367.5-1.07 0-1.93-.375a4.2 4.2 0 0 1-1.46-1.086 5 5 0 0 1-.922-1.703q-.32-1-.32-2.242v-.867q0-1.242.327-2.242.33-1 .938-1.703a4.2 4.2 0 0 1 1.477-1.094q.867-.383 1.937-.383 1.39 0 2.352.516a3.7 3.7 0 0 1 1.492 1.398q.269.45.43.97c.174.563-.3 1.077-.889 1.077h-.132c-.519 0-.928-.406-1.096-.897a3 3 0 0 0-.134-.322 1.64 1.64 0 0 0-.734-.758q-.484-.265-1.289-.265-.625 0-1.102.234-.468.234-.78.703-.314.461-.47 1.156-.156.688-.156 1.594v.883a8 8 0 0 0 .14 1.555q.142.687.438 1.164t.766.726 1.117.25q.789 0 1.281-.25.5-.25.758-.734.081-.15.145-.32m21.423.632 2.618-8.444a1 1 0 0 1 .955-.704h.232a1 1 0 0 1 .943 1.333l-3.31 9.375a1 1 0 0 1-.942.667h-.879zM53.17 3.625a1 1 0 0 1 .955.705l2.603 8.443.406 2.227h-.893a1 1 0 0 1-.943-.668L52 4.957a1 1 0 0 1 .944-1.332zm27 1.727-3.012 8.967a1 1 0 0 1-.948.681h-.113a1 1 0 0 1-.937-1.35l3.502-9.375a1 1 0 0 1 .937-.65h.76zM83.6 15a1 1 0 0 1-.948-.68l-3.028-8.968-.195-1.727h.768a1 1 0 0 1 .936.648l3.522 9.375A1 1 0 0 1 83.72 15zm-1.714-4.227a.848.848 0 0 1 0 1.696H77.48a.848.848 0 0 1 0-1.696zm10.104.079h-2.086a.844.844 0 0 1 0-1.688h2.086q.72 0 1.164-.234.453-.242.664-.657a2.1 2.1 0 0 0 .211-.96q0-.524-.21-.977a1.7 1.7 0 0 0-.665-.734q-.446-.282-1.164-.282h-2.227V14a1 1 0 0 1-1 1h-.148a1 1 0 0 1-1-1V4.625a1 1 0 0 1 1-1h3.375q1.327 0 2.266.477.945.468 1.437 1.304.5.829.5 1.89 0 1.102-.5 1.9-.492.796-1.437 1.226-.937.43-2.266.43m13.874-2.532a.843.843 0 0 1 0 1.688h-4.297a.844.844 0 1 1 0-1.688zm-5.555-4.695a1 1 0 0 1 1 1V14a1 1 0 0 1-1 1h-.148a1 1 0 0 1-1-1V4.625a1 1 0 0 1 1-1zm6.992 0a1 1 0 0 1 1 1V14a1 1 0 0 1-1 1h-.148a1 1 0 0 1-1-1V4.625a1 1 0 0 1 1-1zm4.943 0a1 1 0 0 1 .904.574l2.23 4.73 2.245-4.732a1 1 0 0 1 .903-.572h.074a1 1 0 0 1 .885 1.464l-2.899 5.529a1 1 0 0 0-.114.464V14a1 1 0 0 1-1 1h-.18a1 1 0 0 1-1-1v-2.917a1 1 0 0 0-.115-.466l-2.904-5.527a1 1 0 0 1 .885-1.465z"/><path fill-rule="evenodd" clip-rule="evenodd" d="m70.41 10.19 1.748 3.347A1 1 0 0 1 71.272 15h-.046a1 1 0 0 1-.888-.54l-1.941-3.757H66.48a1 1 0 0 1-.137-.01V14a1 1 0 0 1-1 1h-.148a1 1 0 0 1-1-1V4.625a1 1 0 0 1 1-1h3.132q1.297 0 2.227.39.93.391 1.43 1.157.5.765.5 1.883 0 .883-.313 1.53a3 3 0 0 1-.883 1.087q-.39.303-.879.517m-3.93-1.182a1 1 0 0 0-.136.01V5.32h1.984q.681 0 1.125.227.446.226.665.648.218.414.218.985 0 .531-.226.945a1.55 1.55 0 0 1-.657.648q-.436.235-1.101.235zM44.914 16a6.5 6.5 0 1 1 5.25-2.665l5.407 5.408a1 1 0 0 1-1.414 1.414l-5.408-5.408A6.47 6.47 0 0 1 44.914 16m0-11a4.5 4.5 0 1 1 0 9 4.5 4.5 0 0 1 0-9"/></svg>