<svg width="640" height="640" viewBox="0 0 640 640" fill="none" xmlns="http://www.w3.org/2000/svg">
<rect width="640" height="640" fill="#3772FF"/>
<path d="M400 480C383.333 480 369.167 474.167 357.5 462.5C345.833 450.833 340 436.667 340 420C340 403.333 345.833 389.167 357.5 377.5C369.167 365.833 383.333 360 400 360C403.667 360 407.167 360.25 410.5 360.75C413.833 361.25 417 362.333 420 364V220C420 214.333 421.917 209.583 425.75 205.75C429.583 201.917 434.333 200 440 200H500C505.667 200 510.417 201.917 514.25 205.75C518.083 209.583 520 214.333 520 220C520 225.667 518.083 230.417 514.25 234.25C510.417 238.083 505.667 240 500 240H460V420C460 436.667 454.167 450.833 442.5 462.5C430.833 474.167 416.667 480 400 480ZM160 400C154.333 400 149.583 398.083 145.75 394.25C141.917 390.417 140 385.667 140 380C140 374.333 141.917 369.583 145.75 365.75C149.583 361.917 154.333 360 160 360H280C285.667 360 290.417 361.917 294.25 365.75C298.083 369.583 300 374.333 300 380C300 385.667 298.083 390.417 294.25 394.25C290.417 398.083 285.667 400 280 400H160ZM160 320C154.333 320 149.583 318.083 145.75 314.25C141.917 310.417 140 305.667 140 300C140 294.333 141.917 289.583 145.75 285.75C149.583 281.917 154.333 280 160 280H360C365.667 280 370.417 281.917 374.25 285.75C378.083 289.583 380 294.333 380 300C380 305.667 378.083 310.417 374.25 314.25C370.417 318.083 365.667 320 360 320H160ZM160 240C154.333 240 149.583 238.083 145.75 234.25C141.917 230.417 140 225.667 140 220C140 214.333 141.917 209.583 145.75 205.75C149.583 201.917 154.333 200 160 200H360C365.667 200 370.417 201.917 374.25 205.75C378.083 209.583 380 214.333 380 220C380 225.667 378.083 230.417 374.25 234.25C370.417 238.083 365.667 240 360 240H160Z" fill="white"/>
</svg>
